<svg xmlns="http://www.w3.org/2000/svg" width="576" height="149.194"><path fill="#F1F2F2" d="M140.375 66.102h-40.356c-1.041 0-1.886.845-1.886 1.887v19.73c0 1.041.845 1.889 1.886 1.889h15.743v24.514s-3.535 1.205-13.308 1.205c-11.53 0-27.637-4.213-27.637-39.631 0-35.425 16.771-40.086 32.518-40.086 13.63 0 19.502 2.399 23.238 3.556 1.174.359 2.26-.81 2.26-1.851l4.502-19.064c0-.488-.165-1.075-.721-1.473-1.518-1.083-10.774-6.262-34.16-6.262-26.941 0-54.576 11.462-54.576 66.562 0 55.102 31.64 63.312 58.302 63.312 22.076 0 35.469-9.434 35.469-9.434.552-.305.611-1.076.611-1.43v-61.537c0-1.042-.844-1.887-1.885-1.887z"/><path fill="#F1F2F2" d="M348.353 17.117c0-1.05-.832-1.897-1.873-1.897h-22.723c-1.038 0-1.882.847-1.882 1.897l.006 43.913h-35.419v-43.913c0-1.05-.836-1.897-1.875-1.897h-22.722c-1.034 0-1.877.847-1.877 1.897v118.903c0 1.049.843 1.902 1.877 1.902h22.722c1.039 0 1.875-.854 1.875-1.902v-50.859h35.419l-.062 50.859c0 1.049.843 1.902 1.882 1.902h22.776c1.041 0 1.873-.854 1.875-1.902v-118.903z"/><g fill="#F1F2F2"><path d="M183.254 32.719c0-8.182-6.56-14.793-14.653-14.793-8.085 0-14.649 6.612-14.649 14.793 0 8.174 6.564 14.804 14.649 14.804 8.093 0 14.653-6.63 14.653-14.804zM181.629 110.938v-54.886c0-1.042-.841-1.894-1.88-1.894h-22.651c-1.039 0-1.969 1.072-1.969 2.114v78.635c0 2.311 1.44 2.998 3.304 2.998h20.408c2.239 0 2.788-1.1 2.788-3.035v-23.932z"/></g><path fill="#F1F2F2" d="M434.71 54.336h-22.549c-1.034 0-1.876.853-1.876 1.901v58.302s-5.729 4.191-13.859 4.191c-8.13 0-10.288-3.689-10.288-11.65v-50.843c0-1.049-.84-1.901-1.875-1.901h-22.885c-1.033 0-1.879.853-1.879 1.901v54.692c0 23.646 13.179 29.432 31.309 29.432 14.873 0 26.865-8.217 26.865-8.217s.571 4.33.829 4.844c.259.512.932 1.029 1.659 1.029l14.559-.064c1.033 0 1.879-.854 1.879-1.898l-.007-79.817c0-1.049-.843-1.902-1.882-1.902z"/><path fill="#F1F2F2" d="M496.339 51.666c-12.807 0-21.518 5.714-21.518 5.714v-40.263c0-1.05-.839-1.897-1.875-1.897h-22.787c-1.036 0-1.878.847-1.878 1.897v118.903c0 1.049.842 1.902 1.881 1.902h15.81c.712 0 1.251-.367 1.649-1.01.393-.639.96-5.482.96-5.482s9.317 8.83 26.957 8.83c20.708 0 32.584-10.504 32.584-47.154 0-36.651-18.967-41.44-31.783-41.44zm-8.894 66.993c-7.821-.238-13.126-3.787-13.126-3.787v-37.655s5.233-3.208 11.654-3.781c8.12-.727 15.944 1.726 15.944 21.096.001 20.426-3.53 24.457-14.472 24.127z"/><path fill="#F1F2F2" d="M246.936 54.147h-17.045l-.025-22.518c0-.853-.439-1.278-1.425-1.278h-23.228c-.903 0-1.388.397-1.388 1.265v23.27s-11.641 2.81-12.428 3.037c-.783.228-1.36.95-1.36 1.812v14.623c0 1.052.84 1.9 1.879 1.9h11.909v35.179c0 26.129 18.328 28.695 30.695 28.695 5.651 0 12.411-1.814 13.527-2.227.675-.248 1.067-.947 1.067-1.705l.019-16.086c0-1.049-.886-1.898-1.884-1.898-.993 0-3.534.404-6.15.404-8.372 0-11.209-3.893-11.209-8.932 0-5.035-.001-33.431-.001-33.431h17.046c1.039 0 1.881-.848 1.881-1.9v-18.315c0-1.05-.841-1.895-1.88-1.895z"/></svg>