<?xml version="1.0" encoding="utf-8"?>
<!-- Generator: Adobe Illustrator 17.1.0, SVG Export Plug-In . SVG Version: 6.00 Build 0)  -->
<!DOCTYPE svg PUBLIC "-//W3C//DTD SVG 1.1//EN" "http://www.w3.org/Graphics/SVG/1.1/DTD/svg11.dtd">
<svg version="1.1" id="Layer_1" xmlns="http://www.w3.org/2000/svg" xmlns:xlink="http://www.w3.org/1999/xlink" x="0px" y="0px"
	 viewBox="0 0 2500 2500" enable-background="new 0 0 2500 2500" xml:space="preserve">
<g>
	<path fill="#FFFFFF" d="M1999.3,1246.4"/>
</g>
<g>
	<circle fill="#1C3664" cx="1250" cy="1250" r="1225.8"/>
</g>
<g>
	<path fill="#FFFFFF" d="M229.1,1075.6c31.6,3.8,47.7,27.5,44.6,53.9c-3.2,27.2-26.2,44.5-54.5,41.1c-25.5-3-47.7-23.3-44-54.5
		C178.2,1091,199.9,1072.1,229.1,1075.6z M218.2,1151.2c25.6,3.1,47.3-6.5,49.5-25.2c1.7-14.2-10-27.7-36.9-30.9
		c-29.4-3.5-47.6,7.5-49.6,24.4C179.5,1134.2,192.9,1148.2,218.2,1151.2z"/>
	<path fill="#FFFFFF" d="M210.8,949.1c3-10.7,6.7-18,12.5-22.6c5.8-4.8,14.1-6.6,23.3-4c18.7,5.3,23.7,21.6,21.3,36.5
		c-0.3,2.2-1,4.5-1.4,6.1l-5.4,9.1l20.2,5.7c11.8,3.3,12.9,2.3,17.3-9.8l5.1,1.4l-11.7,41.2l-5.1-1.4c2.1-11,1.4-12.7-10.1-15.9
		l-54.5-15.4c-12.1-3.4-13.3-2.3-16.8,7.3l-5.2-1.5L210.8,949.1z M255.4,972.5c1.3-1.6,3-4.8,4-8.5c1.9-6.7,0.7-19-17.2-24.1
		c-15.5-4.4-23.8,3.5-26.5,13c-0.9,3.1-1.1,5.5-0.4,6.5c0.6,1.3,2.2,2.3,4.9,3L255.4,972.5z"/>
	<path fill="#FFFFFF" d="M345.7,795.9c4.9,3.1,16.4,11.6,19.8,14.5l-29.7,66.1l-4.9-2.2c4.1-11.8,3.9-13.4-7.1-18.4l-51.7-23.3
		c-11.3-5.1-12.6-4.1-17.7,5.3l-4.9-2.2l27.6-61.3l20.5,7.6l-1.8,5.5c-5.6-1.1-9.8-1.1-13.3-0.4c-3.3,0.8-6,3.7-9.7,11.9l-3.7,8.1
		c-2.1,4.6-2,5.2,2.4,7.2l28.6,12.9l4.6-10.3c5-11.2,4.7-12.9-3.6-18.7l2.3-5.1l26.9,12.1l-2.3,5.1c-10.5-2.6-11.7-1.6-16.7,9.6
		l-4.6,10.3l23.7,10.7c6.2,2.8,9.7,3.3,12.1,1.4c2.4-1.7,4.7-6.2,7.3-11.9c3.5-7.8,4.6-12.6,2.6-17c-1.6-3.7-4.8-7.9-9.6-12.7
		L345.7,795.9z"/>
	<path fill="#FFFFFF" d="M378.3,614.2c-4,6.9-4,10.7,0.5,14.6c3.4,3,8.9,7.4,19.7,14.4l49.1,32.3l-3.8,5.7l-93.9,8.4l-0.2,0.3
		l28.6,18.8c10.4,6.8,16.6,10.1,20.4,12.2c5.9,2.9,9.5,1.5,15.4-6.6l4.5,3L399,747.2l-4.5-3c4.1-7.1,4.1-11.2-0.7-15.1
		c-3.5-3.1-9-7.4-19.4-14.3L348,697.5c-8.3-5.4-9.8-6.2-14.2-5.9c-4.4,0.3-7.3,2.7-11.2,7.5l-4.4-2.9l13.6-20.8l87.4-9.3l0.3-0.4
		l-25-16.4c-10.8-7.1-17-10.4-20.8-12.4c-5.4-2.6-8.9-0.9-15,7.1l-4.4-2.9l19.7-29.9L378.3,614.2z"/>
	<path fill="#FFFFFF" d="M599.8,506.2l-3.6-4c5.6-6.7,5.4-8.3,0-11.5c-4.4-2.3-10.5-5.8-16.6-9l-21.6,19.3c1.8,4.6,3.9,9.8,6.6,15.3
		c3.4,7.4,5,8.2,13.6,2.1l3.6,4l-24.3,21.8l-3.6-4c6.3-7.3,7.1-9.3,2.2-21.9l-28.6-75.9l4-5.8c23.2,12.6,48.5,26.7,71.8,38.9
		c11.7,6.4,14.1,6.2,22,0.7l3.6,4L599.8,506.2z M541.1,459.7l-0.4,0.3l13.7,33.5l17.9-16L541.1,459.7z"/>
	<path fill="#FFFFFF" d="M737.5,356.9c-5.8,5.4-6.2,6.3-1.2,14l6.4,9.9c2.8,4.3,5.5,8.2,8.4,11.3c-6.4,6.6-14.8,15.6-24.6,21.8
		c-27.5,17.6-55.5,12.3-71.1-12.1c-18.3-28.5-5-57.1,19.6-72.9c9.8-6.3,20.4-9.7,25.4-11.4l14.7,18.8l-4.1,3.9
		c-12.6-12.5-24.1-11.4-34.7-4.6c-15.8,10.1-20.5,31.5-6.1,53.9c11.9,18.5,33.7,31.6,54.4,18.2c3.1-2,5.6-4.5,6.9-6.9
		c1.2-2.5,1.2-4.9-1.6-9.2l-7-10.9c-5.4-8.4-6.6-8.8-19.6-2l-2.9-4.6l34.2-21.9L737.5,356.9z"/>
	<path fill="#FFFFFF" d="M916.8,218c17.5-5.5,31.6-6.4,43.3-0.6c8.8,4.4,17,13.1,21.2,26.3c5.4,17,2.9,31.3-5.1,42.7
		c-7.5,11.2-20.3,19.3-37.4,24.8L904.9,322l-1.6-5.2c10.9-4.5,12.1-5.7,8.4-17.4l-17.2-54c-3.7-11.7-5.2-12.2-15.6-9.7l-1.6-5.2
		L916.8,218z M927.1,293.7c3.1,9.9,7.2,12.1,16.9,9c20.8-6.6,27.9-26.9,20.2-51c-4.3-13.5-12.4-23.6-22.5-27.3
		c-7.4-3.2-15.7-3-24.6-0.2c-5.3,1.7-7.9,3.5-8.8,4.8c-0.8,1.6-0.5,3.7,0.9,8.1L927.1,293.7z"/>
	<path fill="#FFFFFF" d="M1113.9,270.4l-0.8-5.4c8.3-2.5,9.1-3.9,6.3-9.6c-2.4-4.3-5.6-10.6-8.9-16.7l-28.7,4.2
		c-1.1,4.8-2.2,10.3-2.9,16.4c-1.2,8.1-0.4,9.5,10.2,9.3l0.8,5.4l-32.3,4.8l-0.8-5.4c9.3-2.7,11-3.9,13.9-17l17.9-79.1l6.5-2.6
		c12.5,23.3,25.7,49,38.5,72c6.2,11.8,8.3,12.9,18,12.6l0.8,5.4L1113.9,270.4z M1090.5,199.3l-0.5,0.1l-7,35.5l23.8-3.5
		L1090.5,199.3z"/>
	<path fill="#FFFFFF" d="M1286.9,189.9c-1.6-7.5-3-11.6-5.2-14.2c-2.5-2.9-5.2-3.8-14.3-3.8l-8.1,0l-0.1,69.9
		c0,11.9,1.3,13.1,14.5,14l0,5.4l-45.1-0.1l0-5.4c12.7-0.9,14-2,14-14l0.1-69.9l-7,0c-10.8,0-13.5,1.4-15.6,4.1
		c-2.1,2.4-3.4,7.2-5.1,13.8l-5.7,0c0.7-10,1.5-20.2,1.8-28l3.8,0c2.2,3.3,4,3.8,8,3.8l56.7,0.1c3.8,0,5.4-0.9,7.6-3.8l4,0
		c0.2,6.4,0.9,18.5,1.4,27.5L1286.9,189.9z"/>
	<path fill="#FFFFFF" d="M1403.9,273.2l0.8-5.4c8.7,0,9.8-1.1,8.8-7.4c-1.1-4.8-2.3-11.8-3.7-18.6l-28.7-4.2
		c-2.4,4.3-5.1,9.2-7.5,14.8c-3.5,7.4-3.1,9,7.1,11.8l-0.8,5.4l-32.3-4.8l0.8-5.4c9.6,0.1,11.7-0.5,18.2-12.3l40-70.5l7-0.6
		c5.2,25.9,10.5,54.3,16,80.1c2.6,13.1,4.3,14.8,13.5,17.3l-0.8,5.4L1403.9,273.2z M1402.1,198.4l-0.5-0.1l-17,31.9l23.8,3.5
		L1402.1,198.4z"/>
	<path fill="#FFFFFF" d="M1647.2,344.5l2.1-5c8.4,2.2,9.8,1.4,10.4-4.9c0.2-4.9,0.8-12,1.2-18.9l-26.6-11.4
		c-3.4,3.6-7.3,7.6-11,12.4c-5.3,6.2-5.3,7.9,3.8,13.3l-2.1,5l-30-12.9l2.1-5c9.3,2.6,11.4,2.5,20.8-7.2l56.8-57.9l6.9,1.2
		c-1.6,26.3-3.8,55.2-5,81.5c-0.9,13.3,0.3,15.4,8.7,20.2l-2.1,5L1647.2,344.5z M1664.6,271.7l-0.4-0.2l-24.6,26.5l22.1,9.5
		L1664.6,271.7z"/>
	<path fill="#FFFFFF" d="M1817.6,410.4c-3.8,4.4-14.1,15-17.4,17.9l-58-36.3l2.9-4.6c10.8,5.6,12.5,5.6,18.9-4.7l30.1-48
		c6.5-10.4,5.8-12-3.4-18.6l2.9-4.6l35.5,22.2l-2.9,4.6c-10.1-5.4-11.7-5.3-18.2,5.1l-30.2,48.2c-3.8,6.1-4.8,8.8-3,11.4
		c1.6,2.5,5.1,5.1,9.4,7.8c5.5,3.5,10.1,5.4,15.1,4c3.6-1.3,8.5-3.7,14.2-8.4L1817.6,410.4z"/>
	<path fill="#FFFFFF" d="M1929.8,499c-4.4,3.8-16.1,12.9-19.7,15.2l-52.3-44.1l3.5-4.1c9.9,7.1,11.6,7.3,19.4-2l36.5-43.3
		c7.9-9.4,7.4-11-0.7-18.9l3.5-4.1l32,27l-3.5,4.1c-9.3-6.8-10.9-6.9-18.8,2.5l-36.6,43.5c-4.6,5.5-6,8.1-4.6,10.9
		c1.2,2.7,4.3,5.7,8.2,9c5,4.2,9.3,6.8,14.4,6.1c3.8-0.8,8.9-2.5,15.3-6.3L1929.8,499z"/>
	<path fill="#FFFFFF" d="M1961.8,564.9l4-3.7c8.2,7.6,9.9,8,18.8-0.2l41.8-38.3c9-8.3,8.8-10,1.8-18.7l4-3.7l28,30.5l-4,3.7
		c-8.1-7.7-9.7-8-18.7,0.3l-41.8,38.3c-9,8.3-8.8,9.8-1.9,18.6l-4,3.7L1961.8,564.9z"/>
	<path fill="#FFFFFF" d="M2063.3,690.2l4.4-3.1c6,6.3,7.6,6.4,11.4,1.3c2.8-4.1,7-9.7,11-15.4l-16.6-23.8
		c-4.8,1.2-10.2,2.6-15.9,4.7c-7.8,2.5-8.7,3.9-3.7,13.3l-4.4,3.1l-18.7-26.8l4.4-3.1c6.5,7.1,8.4,8.1,21.4,4.8l78.8-19.3l5.2,4.7
		c-15.3,21.5-32.3,44.9-47.3,66.6c-7.8,10.9-7.8,13.2-3.3,21.7l-4.4,3.1L2063.3,690.2z M2116.4,637.6l-0.3-0.4l-34.9,9.6l13.8,19.7
		L2116.4,637.6z"/>
	<path fill="#FFFFFF" d="M2243.7,831.3c-3.8-7-7.1-9-12.7-7.2c-4.3,1.3-10.9,3.8-22.5,9.3l-53.1,25.2l-2.9-6.2l41.6-84.6l-0.1-0.3
		l-30.9,14.7c-11.2,5.3-17.3,8.9-21,11c-5.6,3.5-6.2,7.4-2.3,16.6l-4.9,2.3l-15.4-32.4l4.9-2.3c3.9,7.1,7.4,9.3,13.3,7.2
		c4.4-1.4,11-3.8,22.3-9.2l28.5-13.5c8.9-4.2,10.4-5.1,12.4-9.1c2-3.9,1.5-7.6-0.6-13.5l4.7-2.3l10.7,22.4l-37.5,79.5l0.2,0.4
		l27-12.9c11.6-5.5,17.7-9.1,21.4-11.4c5-3.2,5.4-7.2,1.7-16.5l4.7-2.3l15.4,32.4L2243.7,831.3z"/>
	<path fill="#FFFFFF" d="M2233.2,1010.4c-7.2-0.1-18.5-0.5-24.3-1.5c-1.8-3.5-8.1-14.7-10.9-24.5c-10.2-35.3,9.4-57.2,31.9-63.7
		c29.5-8.5,55.5,7.9,64.6,39.7c3.1,10.9,3.2,21.3,3.4,25.5c-7.5,3.5-13.3,6.2-21.7,9.4l-2.6-5c14.5-8.8,17.2-19,13.6-31.4
		c-5.9-20.5-28.1-26.7-49.2-20.6c-25.7,7.4-38.7,26.6-33.3,45.5c3.5,12.2,12.7,17.7,29,20.6L2233.2,1010.4z"/>
	<path fill="#FFFFFF" d="M2256.1,1156.4c-5.8-0.1-20.1-1.3-24.5-2l-9.2-71.9l5.4-0.7c2.7,12.2,3.7,13.5,15.7,12l56.2-7.2
		c12.3-1.6,12.9-3.1,12.4-13.8l5.4-0.7l8.5,66.6l-21.5,4.2l-1.4-5.6c5.4-2,8.9-4.2,11.5-6.6c2.4-2.4,3.2-6.3,2.1-15.2l-1.1-8.8
		c-0.6-5.1-1-5.5-5.8-4.9l-31.1,4l1.4,11.2c1.6,12.2,2.7,13.5,12.9,14.1l0.7,5.5l-29.2,3.7l-0.7-5.5c10.3-3.3,10.8-4.8,9.2-16.9
		l-1.4-11.2l-25.7,3.3c-6.8,0.9-10,2.2-11.1,5.1c-1.1,2.7-0.8,7.8,0,14c1.1,8.5,2.6,13.1,6.7,15.8c3.3,2.3,8.2,4.2,14.9,5.8
		L2256.1,1156.4z"/>
	<path fill="#FFFFFF" d="M2270.1,1421.9c-31.6-3.9-47.6-27.7-44.3-54.1c3.4-27.2,26.4-44.4,54.6-40.9c25.4,3.2,47.6,23.5,43.8,54.7
		C2321.1,1406.7,2299.3,1425.5,2270.1,1421.9z M2281.4,1346.3c-25.6-3.2-47.3,6.3-49.6,25c-1.8,14.2,9.9,27.7,36.7,31
		c29.4,3.6,47.6-7.3,49.7-24.2C2320,1363.4,2306.7,1349.4,2281.4,1346.3z"/>
	<path fill="#FFFFFF" d="M2287.9,1548.4c-3.1,10.7-6.8,17.9-12.6,22.5c-5.8,4.8-14.1,6.5-23.3,3.9c-18.7-5.4-23.6-21.7-21.1-36.6
		c0.3-2.2,1-4.5,1.4-6.1l5.4-9l-20.2-5.8c-11.8-3.4-12.9-2.4-17.4,9.7l-5-1.5l11.9-41.2l5,1.5c-2.2,11-1.5,12.7,10,16l54.5,15.7
		c12.1,3.5,13.2,2.3,16.8-7.2l5.2,1.5L2287.9,1548.4z M2243.3,1524.8c-1.3,1.6-3,4.8-4.1,8.4c-1.9,6.7-0.8,19,17.1,24.1
		c15.5,4.5,23.8-3.4,26.6-12.9c0.9-3.1,1.1-5.5,0.4-6.5c-0.6-1.3-2.2-2.3-4.9-3.1L2243.3,1524.8z"/>
	<path fill="#FFFFFF" d="M2152.2,1701c-4.9-3.1-16.4-11.7-19.8-14.6l30-65.9l4.9,2.2c-4.1,11.8-4,13.4,7,18.4l51.6,23.5
		c11.3,5.1,12.6,4.2,17.8-5.2l4.9,2.2l-27.9,61.1l-20.4-7.7l1.8-5.5c5.6,1.2,9.8,1.1,13.3,0.4c3.3-0.8,6.1-3.7,9.8-11.8l3.7-8.1
		c2.1-4.6,2-5.2-2.3-7.2l-28.5-13l-4.7,10.3c-5.1,11.2-4.8,12.9,3.5,18.8l-2.3,5.1l-26.8-12.2l2.3-5.1c10.5,2.7,11.7,1.6,16.8-9.5
		l4.7-10.3l-23.6-10.8c-6.2-2.8-9.7-3.4-12.1-1.5c-2.4,1.7-4.8,6.2-7.3,11.9c-3.6,7.8-4.7,12.6-2.7,17c1.6,3.7,4.8,8,9.6,12.8
		L2152.2,1701z"/>
	<path fill="#FFFFFF" d="M2118.7,1882.6c4-6.9,4-10.7-0.4-14.6c-3.4-3-8.8-7.4-19.6-14.5l-49-32.5l3.8-5.7l94-8l0.2-0.3l-28.5-18.9
		c-10.3-6.9-16.5-10.2-20.3-12.3c-5.9-2.9-9.5-1.5-15.4,6.6l-4.5-3l19.8-29.9l4.5,3c-4.1,7-4.2,11.2,0.7,15.1
		c3.5,3.1,9,7.5,19.3,14.4l26.3,17.4c8.2,5.5,9.8,6.3,14.2,6c4.4-0.3,7.3-2.6,11.2-7.4l4.4,2.9l-13.7,20.7l-87.5,8.9l-0.3,0.4
		l24.9,16.5c10.7,7.1,16.9,10.5,20.8,12.5c5.3,2.6,8.9,1,15-7.1l4.4,2.9l-19.8,29.9L2118.7,1882.6z"/>
	<path fill="#FFFFFF" d="M1896.8,1989.6l3.6,4.1c-5.6,6.7-5.5,8.2,0,11.5c4.4,2.3,10.5,5.8,16.6,9.1l21.7-19.2
		c-1.8-4.6-3.8-9.8-6.5-15.3c-3.4-7.4-4.9-8.2-13.6-2.2l-3.6-4l24.4-21.7l3.6,4.1c-6.3,7.3-7.1,9.3-2.3,21.9l28.2,76l-4.1,5.7
		c-23.1-12.7-48.3-26.9-71.6-39.3c-11.7-6.5-14.1-6.3-21.9-0.8l-3.6-4.1L1896.8,1989.6z M1955.2,2036.3l0.4-0.3l-13.5-33.5l-18,15.9
		L1955.2,2036.3z"/>
	<path fill="#FFFFFF" d="M1758.4,2138.2c5.8-5.4,6.2-6.2,1.3-14l-6.3-9.9c-2.7-4.3-5.4-8.2-8.3-11.3c6.4-6.5,14.9-15.5,24.7-21.7
		c27.6-17.5,55.5-12.1,71.1,12.4c18.2,28.6,4.8,57.1-19.9,72.8c-9.8,6.2-20.5,9.6-25.5,11.3l-14.6-18.8l4.1-3.9
		c12.5,12.6,24.1,11.5,34.7,4.7c15.9-10.1,20.6-31.4,6.4-53.8c-11.8-18.5-33.5-31.7-54.4-18.5c-3.1,2-5.6,4.5-7,6.9
		c-1.2,2.5-1.2,4.9,1.5,9.2l6.9,10.9c5.4,8.5,6.6,8.8,19.6,2.1l2.9,4.6l-34.3,21.8L1758.4,2138.2z"/>
	<path fill="#FFFFFF" d="M1578.5,2276.2c-17.5,5.5-31.6,6.2-43.3,0.4c-8.7-4.4-17-13.2-21.1-26.4c-5.3-17-2.8-31.3,5.3-42.7
		c7.5-11.2,20.4-19.2,37.5-24.6l33.9-10.6l1.6,5.2c-11,4.4-12.1,5.6-8.4,17.3l16.9,54.1c3.7,11.7,5.2,12.2,15.6,9.8l1.6,5.2
		L1578.5,2276.2z M1568.4,2200.5c-3.1-9.9-7.1-12.1-16.9-9.1c-20.8,6.5-28,26.8-20.4,50.9c4.2,13.5,12.2,23.7,22.4,27.4
		c7.3,3.2,15.7,3.1,24.6,0.3c5.3-1.7,7.9-3.5,8.8-4.8c0.8-1.6,0.5-3.7-0.9-8.1L1568.4,2200.5z"/>
	<path fill="#FFFFFF" d="M1381.6,2223l0.8,5.4c-8.3,2.5-9.1,3.9-6.3,9.6c2.4,4.3,5.5,10.6,8.8,16.8l28.7-4.1
		c1.1-4.8,2.2-10.3,3-16.3c1.3-8.1,0.4-9.5-10.2-9.3l-0.8-5.4l32.3-4.6l0.8,5.4c-9.3,2.6-11,3.8-14,17l-18.3,79l-6.6,2.5
		c-12.3-23.3-25.5-49.1-38.2-72.2c-6.2-11.8-8.3-13-17.9-12.7l-0.8-5.4L1381.6,2223z M1404.6,2294.1l0.5-0.1l7.2-35.4l-23.8,3.4
		L1404.6,2294.1z"/>
	<path fill="#FFFFFF" d="M1208.3,2302.7c1.5,7.5,3,11.6,5.2,14.2c2.5,2.9,5.2,3.9,14.3,3.9l8.1,0l0.4-69.9
		c0.1-11.9-1.2-13.1-14.4-14.1l0-5.4l45.1,0.3l0,5.4c-12.7,0.9-14,2-14.1,13.9l-0.4,69.9l7,0c10.8,0.1,13.5-1.4,15.6-4
		c2.1-2.4,3.4-7.1,5.2-13.8l5.7,0c-0.7,10-1.6,20.2-1.9,28l-3.8,0c-2.2-3.4-4-3.8-7.9-3.9l-56.7-0.3c-3.8,0-5.4,0.9-7.7,3.8l-4,0
		c-0.1-6.4-0.8-18.5-1.3-27.6L1208.3,2302.7z"/>
	<path fill="#FFFFFF" d="M1091.5,2218.8l-0.8,5.4c-8.7,0-9.8,1.1-8.9,7.3c1,4.8,2.2,11.8,3.6,18.6l28.6,4.4
		c2.4-4.3,5.1-9.2,7.6-14.8c3.5-7.4,3.1-9-7-11.9l0.8-5.4l32.3,4.9l-0.8,5.4c-9.6-0.2-11.7,0.5-18.3,12.2l-40.4,70.4l-7,0.5
		c-5.1-25.9-10.2-54.4-15.6-80.2c-2.5-13.1-4.2-14.8-13.5-17.4l0.8-5.4L1091.5,2218.8z M1093,2293.6l0.5,0.1l17.1-31.9l-23.8-3.6
		L1093,2293.6z"/>
	<path fill="#FFFFFF" d="M848.6,2146.4l-2.2,5c-8.4-2.3-9.8-1.5-10.4,4.8c-0.2,4.9-0.9,12-1.3,18.9l26.6,11.6
		c3.4-3.5,7.3-7.6,11.1-12.4c5.3-6.2,5.4-7.9-3.8-13.3l2.2-5l29.9,13l-2.2,5c-9.3-2.6-11.4-2.5-20.8,7.1l-57,57.7l-6.9-1.3
		c1.7-26.3,4-55.2,5.4-81.5c0.9-13.3-0.2-15.4-8.6-20.2l2.2-5L848.6,2146.4z M830.9,2219.1l0.4,0.2l24.7-26.4l-22-9.6L830.9,2219.1z
		"/>
	<path fill="#FFFFFF" d="M678.6,2079.7c3.9-4.3,14.2-15,17.5-17.8l57.9,36.6l-2.9,4.6c-10.7-5.7-12.5-5.6-18.9,4.6l-30.3,47.9
		c-6.6,10.4-5.9,11.9,3.3,18.6l-2.9,4.6l-35.4-22.4l2.9-4.6c10.1,5.5,11.7,5.3,18.3-5l30.4-48c3.8-6.1,4.8-8.8,3.1-11.4
		c-1.6-2.5-5.1-5.1-9.4-7.8c-5.5-3.5-10.1-5.5-15.1-4.1c-3.6,1.3-8.5,3.7-14.3,8.3L678.6,2079.7z"/>
	<path fill="#FFFFFF" d="M566.8,1990.6c4.4-3.7,16.1-12.8,19.8-15.1l52.1,44.4l-3.5,4.1c-9.8-7.1-11.5-7.3-19.4,1.9L579,2069
		c-7.9,9.3-7.5,11,0.6,18.9l-3.5,4.1l-31.9-27.1l3.5-4.1c9.2,6.8,10.8,6.9,18.8-2.4l36.8-43.3c4.6-5.5,6-8.1,4.7-10.9
		c-1.2-2.7-4.3-5.8-8.2-9.1c-5-4.2-9.2-6.8-14.4-6.2c-3.8,0.8-9,2.4-15.3,6.2L566.8,1990.6z"/>
	<path fill="#FFFFFF" d="M535.1,1924.5l-4,3.6c-8.2-7.6-9.9-8-18.8,0.1l-41.9,38.1c-9.1,8.2-8.8,10-1.9,18.7l-4,3.6l-27.8-30.6
		l4-3.6c8.1,7.7,9.7,8,18.7-0.2l41.9-38.1c9.1-8.2,8.8-9.7,2-18.6l4-3.6L535.1,1924.5z"/>
	<path fill="#FFFFFF" d="M434.2,1798.8l-4.5,3.1c-5.9-6.3-7.5-6.4-11.4-1.4c-2.8,4.1-7,9.7-11,15.4l16.5,23.8
		c4.8-1.2,10.2-2.6,16-4.6c7.8-2.5,8.7-3.9,3.8-13.3l4.5-3.1l18.6,26.8l-4.5,3.1c-6.5-7.1-8.4-8.2-21.4-4.9l-78.9,18.9l-5.2-4.7
		c15.4-21.5,32.5-44.8,47.6-66.4c7.8-10.8,7.9-13.2,3.4-21.7l4.5-3.1L434.2,1798.8z M380.8,1851.2l0.3,0.4l34.9-9.4l-13.7-19.8
		L380.8,1851.2z"/>
	<path fill="#FFFFFF" d="M254.4,1656.9c3.8,7,7,9,12.7,7.2c4.3-1.3,10.9-3.7,22.6-9.2l53.2-25l2.9,6.2l-42,84.4l0.1,0.3l31-14.6
		c11.2-5.3,17.3-8.8,21.1-11c5.6-3.5,6.2-7.3,2.4-16.6l4.9-2.3l15.2,32.4l-4.9,2.3c-3.9-7.1-7.4-9.4-13.3-7.3
		c-4.5,1.4-11.1,3.8-22.3,9.1l-28.5,13.4c-8.9,4.2-10.5,5.1-12.5,9c-2,3.9-1.5,7.6,0.5,13.5l-4.8,2.2l-10.6-22.5l37.8-79.3l-0.2-0.4
		l-27.1,12.7c-11.7,5.5-17.7,9-21.4,11.3c-5,3.2-5.4,7.1-1.8,16.5l-4.8,2.2l-15.2-32.4L254.4,1656.9z"/>
	<path fill="#FFFFFF" d="M265.7,1477.8c7.2,0.1,18.5,0.5,24.3,1.6c1.8,3.5,8,14.8,10.8,24.6c10,35.4-9.6,57.2-32.2,63.5
		c-29.6,8.4-55.4-8.1-64.4-40c-3.1-10.9-3.1-21.3-3.3-25.6c7.5-3.4,13.3-6.1,21.7-9.3l2.6,5.1c-14.6,8.8-17.3,19-13.8,31.4
		c5.8,20.5,28,26.8,49.1,20.9c25.7-7.3,38.9-26.4,33.5-45.4c-3.5-12.3-12.6-17.8-28.9-20.8L265.7,1477.8z"/>
	<path fill="#FFFFFF" d="M243.5,1331.7c5.8,0.1,20.1,1.4,24.5,2.1l8.9,71.9l-5.4,0.7c-2.6-12.2-3.6-13.5-15.6-12l-56.3,6.9
		c-12.3,1.5-12.9,3-12.4,13.7l-5.4,0.7l-8.2-66.7l21.5-4.1l1.3,5.6c-5.4,1.9-9,4.2-11.5,6.6c-2.4,2.4-3.2,6.3-2.1,15.2l1.1,8.8
		c0.6,5.1,1,5.5,5.7,4.9l31.1-3.8l-1.4-11.2c-1.5-12.2-2.6-13.5-12.8-14.1l-0.7-5.5l29.2-3.6l0.7,5.5c-10.4,3.2-10.8,4.7-9.3,16.9
		l1.4,11.2l25.8-3.2c6.8-0.8,10-2.2,11.1-5.1c1.1-2.7,0.8-7.8,0-14c-1.1-8.5-2.6-13.2-6.6-15.9c-3.3-2.3-8.2-4.3-14.8-5.9
		L243.5,1331.7z"/>
</g>
<g>
	<g>
		<path fill="#FFFFFF" d="M1181.5,590h115.4l514.3,1153.6h-168.1l-152.9-339.9h-489.4l-143.3,339.9H688.8L1181.5,590z
			 M1422.7,1257.5L1237.7,842l-171.6,415.5H1422.7z"/>
	</g>
</g>
<g>
	<path fill="#FFFFFF" d="M1250,442.7c215.6,0,418.3,84,570.8,236.4s236.4,355.2,236.4,570.8s-84,418.3-236.4,570.8
		s-355.2,236.4-570.8,236.4s-418.3-84-570.8-236.4S442.7,1465.6,442.7,1250s84-418.3,236.4-570.8S1034.4,442.7,1250,442.7
		 M1250,376.4c-482.5,0-873.6,391.1-873.6,873.6s391.1,873.6,873.6,873.6s873.6-391.1,873.6-873.6S1732.5,376.4,1250,376.4
		L1250,376.4z"/>
</g>
</svg>
